Coordinates
version=1
nRows=13
nColumns=22
inDegrees=yes

Units are S.I. units (second, meters, Newtons, ...)
If the header above contains a line with 'inDegrees', this indicates whether rotational values are in degrees (yes) or radians (no).

endheader
time	pelvis_tilt	pelvis_list	pelvis_rotation	pelvis_tx	pelvis_ty	pelvis_tz	hip_flexion_r	hip_adduction_r	hip_rotation_r	knee_angle_r	ankle_angle_r	subtalar_angle_r	hip_flexion_l	hip_adduction_l	hip_rotation_l	knee_angle_l	ankle_angle_l	subtalar_angle_l	lumbar_extension	lumbar_bending	lumbar_rotation
      3.82000000	     -2.21744974	     -0.39908581	   -369.12400698	      0.57184786	      0.94551713	     -0.59406163	     34.65346794	     -3.60457176	    -25.05641837	    -27.32292809	      5.54646971	      0.25517142	     -6.13586478	     -5.54397577	     -1.24308579	    -10.38873553	     18.50193492	      8.01558159	     -3.54726752	      3.66006410	    -17.05793576
      3.83000000	     -2.03131123	     -0.35335199	   -369.18257786	      0.58011758	      0.94431483	     -0.59164094	     34.29781186	     -4.17493083	    -26.30051059	    -25.68401177	      5.85398494	     -0.26544454	     -6.97479432	     -5.51721347	     -1.33298962	    -10.26404513	     18.69965651	      8.17217956	     -3.67459126	      3.80642671	    -17.35757304
      3.84000000	     -1.84140650	     -0.32281117	   -369.21296061	      0.58851442	      0.94313642	     -0.58904501	     33.92386807	     -4.74107386	    -27.62222745	    -24.21387349	      6.18220900	     -0.78948480	     -7.80415861	     -5.52390598	     -1.38003959	    -10.17553367	     18.88352928	      8.39484471	     -3.79329593	      3.97295234	    -17.66709665
      3.85000000	     -1.65316113	     -0.31070965	   -369.23059814	      0.59700715	      0.94198158	     -0.58622220	     33.54426772	     -5.28113442	    -28.97101839	    -22.93630738	      6.54464724	     -1.32225607	     -8.60083104	     -5.57105748	     -1.40292100	    -10.16010937	     19.04981031	      8.70551901	     -3.90438205	      4.15774349	    -17.93868618
      3.86000000	     -1.48186389	     -0.31757312	   -369.23592140	      0.60560356	      0.94085929	     -0.58316261	     33.17773783	     -5.78738817	    -30.29451577	    -21.87279161	      6.89128607	     -1.81322338	     -9.36780494	     -5.66258837	     -1.40030571	    -10.18146639	     19.18856113	      9.11043794	     -3.98941628	      4.36541342	    -18.22113741
      3.87000000	     -1.33894362	     -0.33868125	   -369.22626944	      0.61428915	      0.93976746	     -0.57986209	     32.83868405	     -6.26627973	    -31.57119101	    -21.04420671	      7.20573720	     -2.19351523	    -10.08670890	     -5.79579071	     -1.35036950	    -10.24716020	     19.26498406	      9.55662021	     -4.03660620	      4.59154849	    -18.50692352
      3.88000000	     -1.20654829	     -0.37476491	   -369.22911357	      0.62304272	      0.93871790	     -0.57626601	     32.51110603	     -6.69535642	    -32.72864285	    -20.45497966	      7.51440901	     -2.57014697	    -10.75995821	     -5.96655351	     -1.27945925	    -10.39794002	     19.31684806	     10.13657475	     -4.07205691	      4.82737496	    -18.73022166
      3.89000000	     -1.10979288	     -0.43188767	   -369.23393935	      0.63189621	      0.93770710	     -0.57239208	     32.21219595	     -7.07644819	    -33.77942472	    -20.10863492	      7.74998405	     -2.85558614	    -11.38216428	     -6.18515835	     -1.18545111	    -10.59165426	     19.29709180	     10.73212160	     -4.06220193	      5.08998546	    -18.96171073
      3.90000000	     -1.03396306	     -0.48933575	   -369.26334194	      0.64082599	      0.93672652	     -0.56819549	     31.93664665	     -7.41459947	    -34.67694479	    -20.00401887	      7.95419784	     -3.13491667	    -11.94664222	     -6.42488062	     -1.07625641	    -10.87136071	     19.24704874	     11.45935353	     -4.02633611	      5.34513464	    -19.14239777
      3.91000000	     -0.99636239	     -0.59394373	   -369.30203833	      0.64986094	      0.93579537	     -0.56367955	     31.66906291	     -7.66906534	    -35.49296203	    -20.10216229	      8.04764944	     -3.32712206	    -12.45479077	     -6.73890340	     -0.94431075	    -11.21249968	     19.10885962	     12.09995034	     -3.94726643	      5.65185676	    -19.32152289
      3.92000000	     -0.98778896	     -0.70192024	   -369.37739722	      0.65900130	      0.93489488	     -0.55880940	     31.41796737	     -7.86626380	    -36.19398052	    -20.39191793	      8.08916677	     -3.52537372	    -12.89864329	     -7.07499793	     -0.81930455	    -11.64102546	     18.92528034	     12.86146888	     -3.83038424	      5.95474557	    -19.45069282
      3.93000000	     -1.01898585	     -0.84003051	   -369.47968208	      0.66823015	      0.93403918	     -0.55360666	     31.18320455	     -7.98976649	    -36.84733727	    -20.84028562	      7.96647588	     -3.66590528	    -13.27364638	     -7.46151652	     -0.67616348	    -12.14800310	     18.67962345	     13.54918964	     -3.66932423	      6.28811812	    -19.55689527
      3.94000000	     -1.08906864	     -0.99315305	   -369.62511638	      0.67755241	      0.93322785	     -0.54803797	     30.96525261	     -8.03802647	    -37.43748320	    -21.40841170	      7.74888738	     -3.79146752	    -13.57305871	     -7.87963395	     -0.53391760	    -12.74694695	     18.34557902	     14.27759798	     -3.46226347	      6.63227082	    -19.62472303
